<?xml version="1.0" standalone="no"?>
<!DOCTYPE svg PUBLIC "-//W3C//DTD SVG 20010904//EN"
 "http://www.w3.org/TR/2001/REC-SVG-20010904/DTD/svg10.dtd">
<svg version="1.0" xmlns="http://www.w3.org/2000/svg"
 width="4571.000000pt" height="4571.000000pt" viewBox="0 0 4571.000000 4571.000000"
 preserveAspectRatio="xMidYMid meet">

<g transform="translate(0.000000,4571.000000) scale(0.100000,-0.100000)"
fill="#000000" stroke="none">
<path d="M31835 28303 c-437 -57 -814 -275 -1077 -623 -83 -110 -193 -318
-222 -420 -9 -30 -41 -305 -72 -610 l-56 -555 -47 -1382 -46 -1382 50 -5 c28
-3 572 -22 1211 -43 l1161 -37 554 18 c863 27 851 27 856 46 3 11 35 25 99 43
611 172 1050 680 1135 1314 16 124 6 392 -20 511 -134 611 -598 1080 -1200
1212 -145 33 -325 44 -467 31 -69 -7 -131 -14 -138 -17 -10 -4 -9 12 3 73 10
53 15 141 15 273 0 164 -4 211 -22 297 -144 667 -651 1147 -1317 1248 -91 13
-322 18 -400 8z"/>
<path d="M12735 26910 c-1046 -71 -1736 -459 -2106 -1182 -166 -326 -263 -703
-300 -1161 -17 -220 -7 -695 19 -862 127 -815 504 -1409 1180 -1856 155 -103
273 -167 548 -298 811 -388 1284 -716 1498 -1039 114 -172 142 -270 133 -460
-17 -368 -196 -562 -555 -603 -166 -19 -351 5 -470 61 -130 61 -215 150 -268
280 -27 67 -54 208 -54 284 l0 51 337 337 338 338 -1358 0 -1359 0 5 -542 c4
-591 10 -672 67 -958 219 -1097 894 -1709 2055 -1864 408 -55 948 -45 1345 25
354 62 709 194 958 355 659 427 1002 1189 1004 2234 2 700 -214 1354 -612
1846 -89 111 -296 314 -418 412 -220 176 -384 274 -812 485 -601 297 -947 518
-1211 775 -233 226 -339 426 -339 641 0 286 107 495 303 591 113 54 173 65
372 65 141 0 194 -4 245 -18 109 -29 189 -74 261 -146 104 -105 154 -228 166
-409 l6 -94 -339 -339 -339 -339 1363 0 1362 0 0 373 c-1 727 -40 1079 -166
1468 -294 910 -986 1420 -2084 1534 -187 19 -596 27 -775 15z"/>
<path d="M15831 26833 c295 -312 481 -631 567 -973 l27 -105 2 -4177 3 -4178
2380 0 2380 0 0 1361 0 1362 -83 -80 c-253 -243 -549 -431 -823 -522 -229 -77
-215 -76 -1059 -76 l-750 0 -3 839 c-1 469 2 844 7 849 11 11 395 -9 554 -29
595 -75 1083 -278 1414 -588 l63 -58 0 1698 0 1697 -22 -19 c-13 -11 -61 -55
-108 -98 -236 -216 -534 -400 -777 -480 -199 -66 -229 -69 -700 -73 l-433 -4
0 846 0 846 788 -4 c762 -3 790 -4 872 -24 342 -86 654 -267 978 -568 l82 -77
0 1359 1 1358 65 -70 c320 -342 509 -671 587 -1024 l21 -96 3 -4162 3 -4163
1361 0 1361 0 -82 87 c-304 321 -493 651 -572 998 l-22 100 -3 1775 -2 1775
678 -2370 679 -2370 17 59 c9 32 313 1094 675 2360 l659 2301 0 -1746 c1
-1946 5 -1826 -69 -2049 -92 -279 -245 -526 -500 -807 l-101 -113 1360 0 1361
0 3 4178 c2 3995 3 4180 21 4252 86 356 272 683 567 994 44 46 79 86 79 90 0
3 -611 5 -1357 4 l-1358 -3 -675 -2362 c-372 -1299 -678 -2364 -681 -2367 -3
-3 -303 1040 -668 2317 -365 1277 -670 2343 -678 2370 l-14 47 -4080 0 -4081
0 83 -87z"/>
</g>
</svg>
