<?xml version="1.0" encoding="UTF-8"?><svg id="Calque_1" xmlns="http://www.w3.org/2000/svg" viewBox="0 0 2507.07 1091.33"><defs><style>.cls-1{fill:#1e1381;}</style></defs><path class="cls-1" d="M2151.7.53c-43.7,5.7-81.4,27.5-107.7,62.3-8.3,11-19.3,31.8-22.2,42-.9,3-4.1,30.5-7.2,61l-5.6,55.5-4.7,138.2-4.6,138.2,5,.5c2.8.3,57.2,2.2,121.1,4.3l116.1,3.7,55.4-1.8c86.3-2.7,85.1-2.7,85.6-4.6.3-1.1,3.5-2.5,9.9-4.3,61.1-17.2,105-68,113.5-131.4,1.6-12.4.6-39.2-2-51.1-13.4-61.1-59.8-108-120-121.2-14.5-3.3-32.5-4.4-46.7-3.1-6.9.7-13.1,1.4-13.8,1.7-1,.4-.9-1.2.3-7.3,1-5.3,1.5-14.1,1.5-27.3,0-16.4-.4-21.1-2.2-29.7-14.4-66.7-65.1-114.7-131.7-124.8-9.1-1.3-32.2-1.8-40-.8Z"/><path class="cls-1" d="M241.7,139.83c-104.6,7.1-173.6,45.9-210.6,118.2-16.6,32.6-26.3,70.3-30,116.1-1.7,22-.7,69.5,1.9,86.2,12.7,81.5,50.4,140.9,118,185.6,15.5,10.3,27.3,16.7,54.8,29.8,81.1,38.8,128.4,71.6,149.8,103.9,11.4,17.2,14.2,27,13.3,46-1.7,36.8-19.6,56.2-55.5,60.3-16.6,1.9-35.1-.5-47-6.1-13-6.1-21.5-15-26.8-28-2.7-6.7-5.4-20.8-5.4-28.4v-5.1l33.7-33.7,33.8-33.8H0l.5,54.2c.4,59.1,1,67.2,6.7,95.8,21.9,109.7,89.4,170.9,205.5,186.4,40.8,5.5,94.8,4.5,134.5-2.5,35.4-6.2,70.9-19.4,95.8-35.5,65.9-42.7,100.2-118.9,100.4-223.4.2-70-21.4-135.4-61.2-184.6-8.9-11.1-29.6-31.4-41.8-41.2-22-17.6-38.4-27.4-81.2-48.5-60.1-29.7-94.7-51.8-121.1-77.5-23.3-22.6-33.9-42.6-33.9-64.1,0-28.6,10.7-49.5,30.3-59.1,11.3-5.4,17.3-6.5,37.2-6.5,14.1,0,19.4.4,24.5,1.8,10.9,2.9,18.9,7.4,26.1,14.6,10.4,10.5,15.4,22.8,16.6,40.9l.6,9.4-33.9,33.9-33.9,33.9h272.5v-37.3c-.1-72.7-4-107.9-16.6-146.8-29.4-91-98.6-142-208.4-153.4-18.7-1.9-59.6-2.7-77.5-1.5Z"/><path class="cls-1" d="M551.3,147.53c29.5,31.2,48.1,63.1,56.7,97.3l2.7,10.5.2,417.7.3,417.8h476v-272.3l-8.3,8c-25.3,24.3-54.9,43.1-82.3,52.2-22.9,7.7-21.5,7.6-105.9,7.6h-75l-.3-83.9c-.1-46.9.2-84.4.7-84.9,1.1-1.1,39.5.9,55.4,2.9,59.5,7.5,108.3,27.8,141.4,58.8l6.3,5.8v-339.5l-2.2,1.9c-1.3,1.1-6.1,5.5-10.8,9.8-23.6,21.6-53.4,40-77.7,48-19.9,6.6-22.9,6.9-70,7.3l-43.3.4v-169.2l78.8.4c76.2.3,79,.4,87.2,2.4,34.2,8.6,65.4,26.7,97.8,56.8l8.2,7.7v-135.9l.1-135.8,6.5,7c32,34.2,50.9,67.1,58.7,102.4l2.1,9.6.3,416.2.3,416.3h272.2l-8.2-8.7c-30.4-32.1-49.3-65.1-57.2-99.8l-2.2-10-.3-177.5-.2-177.5,67.8,237,67.9,237,1.7-5.9c.9-3.2,31.3-109.4,67.5-236l65.9-230.1v174.6c.1,194.6.5,182.6-6.9,204.9-9.2,27.9-24.5,52.6-50,80.7l-10.1,11.3h272.1l.3-417.8c.2-399.5.3-418,2.1-425.2,8.6-35.6,27.2-68.3,56.7-99.4,4.4-4.6,7.9-8.6,7.9-9,0-.3-61.1-.5-135.7-.4l-135.8.3-67.5,236.2c-37.2,129.9-67.8,236.4-68.1,236.7s-30.3-104-66.8-231.7-67-234.3-67.8-237l-1.4-4.7h-816.1l8.3,8.7Z"/></svg>